<?xml version="1.0" encoding="UTF-8" standalone="yes"?>
<!DOCTYPE svg PUBLIC "-//W3C//DTD SVG 1.1//EN" "http://www.w3.org/Graphics/SVG/1.1/DTD/svg11.dtd">

<svg width="833" height="273" viewBox="0 0 833 273" xmlns="http://www.w3.org/2000/svg" xmlns:xlink="http://www.w3.org/1999/xlink" version="1.1" baseProfile="full">
    <g transform="scale(1,-1) translate(0,-273)">
        <path d="M 1.000000 81.550000 L 29.980000 81.550000 Q 36.010000 81.550000 40.240000 79.795000 Q 44.470000 78.040000 47.125000 75.160000 Q 49.780000 72.280000 50.995000 68.545000 Q 52.210000 64.810000 52.210000 60.940000 Q 52.210000 56.980000 50.995000 53.290000 Q 49.780000 49.600000 47.125000 46.720000 Q 44.470000 43.840000 40.240000 42.085000 Q 36.010000 40.330000 29.980000 40.330000 L 15.130000 40.330000 L 15.130000 17.290000 L 1.000000 17.290000 Z M 26.110000 51.310000 Q 28.540000 51.310000 30.790000 51.670000 Q 33.040000 52.030000 34.750000 53.065000 Q 36.460000 54.100000 37.495000 55.990000 Q 38.530000 57.880000 38.530000 60.940000 Q 38.530000 64.000000 37.495000 65.890000 Q 36.460000 67.780000 34.750000 68.815000 Q 33.040000 69.850000 30.790000 70.210000 Q 28.540000 70.570000 26.110000 70.570000 L 15.130000 70.570000 L 15.130000 51.310000 Z M 73.540000 16.120000 Q 70.210000 16.120000 67.330000 16.930000 Q 64.450000 17.740000 62.290000 19.450000 Q 60.130000 21.160000 58.915000 23.770000 Q 57.700000 26.380000 57.700000 29.980000 Q 57.700000 33.940000 59.095000 36.505000 Q 60.490000 39.070000 62.695000 40.600000 Q 64.900000 42.130000 67.735000 42.895000 Q 70.570000 43.660000 73.450000 44.110000 Q 76.330000 44.560000 79.120000 44.830000 Q 81.910000 45.100000 84.070000 45.640000 Q 86.230000 46.180000 87.490000 47.215000 Q 88.750000 48.250000 88.660000 50.230000 Q 88.660000 52.210000 87.985000 53.470000 Q 87.310000 54.730000 86.185000 55.405000 Q 85.060000 56.080000 83.575000 56.305000 Q 82.090000 56.530000 80.380000 56.530000 Q 76.600000 56.530000 74.440000 54.910000 Q 72.280000 53.290000 71.920000 49.510000 L 59.140000 49.510000 Q 59.410000 53.920000 61.390000 56.935000 Q 63.370000 59.950000 66.430000 61.750000 Q 69.490000 63.550000 73.270000 64.315000 Q 77.050000 65.080000 81.010000 65.080000 Q 84.520000 65.080000 88.120000 64.585000 Q 91.720000 64.090000 94.690000 62.650000 Q 97.660000 61.210000 99.550000 58.600000 Q 101.440000 55.990000 101.440000 51.850000 L 101.440000 27.640000 Q 101.440000 24.490000 101.800000 21.610000 Q 102.160000 18.730000 103.060000 17.290000 L 90.100000 17.290000 Q 89.740000 18.370000 89.515000 19.495000 Q 89.290000 20.620000 89.200000 21.790000 Q 86.140000 18.640000 82.000000 17.380000 Q 77.860000 16.120000 73.540000 16.120000 Z M 78.310000 24.580000 Q 82.090000 24.580000 84.160000 25.840000 Q 86.230000 27.100000 87.220000 28.855000 Q 88.210000 30.610000 88.435000 32.410000 Q 88.660000 34.210000 88.660000 35.290000 L 88.660000 40.060000 Q 87.850000 39.340000 86.680000 38.935000 Q 85.510000 38.530000 84.070000 38.260000 Q 82.630000 37.990000 81.100000 37.810000 Q 79.570000 37.630000 78.040000 37.360000 Q 76.510000 37.090000 75.160000 36.640000 Q 73.810000 36.190000 72.775000 35.425000 Q 71.740000 34.660000 71.110000 33.490000 Q 70.480000 32.320000 70.480000 30.520000 Q 70.480000 28.720000 71.110000 27.595000 Q 71.740000 26.470000 72.820000 25.795000 Q 73.900000 25.120000 75.340000 24.850000 Q 76.780000 24.580000 78.310000 24.580000 Z M 130.240000 16.120000 Q 125.830000 16.120000 121.915000 16.975000 Q 118.000000 17.830000 115.030000 19.810000 Q 112.060000 21.790000 110.305000 24.850000 Q 108.550000 27.910000 108.460000 32.410000 L 120.610000 32.410000 Q 120.970000 28.630000 123.535000 26.650000 Q 126.100000 24.670000 130.510000 24.670000 Q 134.830000 24.670000 136.810000 26.470000 Q 138.790000 28.270000 138.790000 30.880000 Q 138.790000 33.760000 136.945000 35.560000 Q 135.100000 37.360000 130.780000 37.360000 L 125.830000 37.360000 L 125.830000 45.370000 L 129.160000 45.370000 Q 133.210000 45.370000 135.595000 46.630000 Q 137.980000 47.890000 137.980000 51.400000 Q 137.980000 53.470000 136.225000 55.045000 Q 134.470000 56.620000 130.690000 56.620000 Q 126.820000 56.620000 124.615000 55.315000 Q 122.410000 54.010000 121.870000 50.230000 L 109.990000 50.230000 Q 110.350000 54.280000 112.195000 57.115000 Q 114.040000 59.950000 116.875000 61.705000 Q 119.710000 63.460000 123.355000 64.270000 Q 127.000000 65.080000 130.960000 65.080000 Q 140.230000 65.080000 145.315000 62.065000 Q 150.400000 59.050000 150.400000 52.570000 Q 150.400000 50.500000 149.635000 48.745000 Q 148.870000 46.990000 147.700000 45.640000 Q 146.530000 44.290000 145.000000 43.435000 Q 143.470000 42.580000 142.030000 42.310000 L 142.030000 42.130000 Q 143.650000 41.950000 145.405000 41.365000 Q 147.160000 40.780000 148.600000 39.475000 Q 150.040000 38.170000 150.985000 36.145000 Q 151.930000 34.120000 151.930000 31.060000 Q 151.930000 27.280000 150.355000 24.490000 Q 148.780000 21.700000 145.945000 19.810000 Q 143.110000 17.920000 139.105000 17.020000 Q 135.100000 16.120000 130.240000 16.120000 Z M 167.050000 1.000000 Q 165.070000 1.000000 163.135000 1.135000 Q 161.200000 1.270000 159.220000 1.450000 L 159.220000 11.980000 Q 160.750000 11.800000 162.415000 11.665000 Q 164.080000 11.530000 165.700000 11.530000 Q 168.580000 11.530000 170.110000 13.150000 Q 171.640000 14.770000 171.640000 17.290000 Q 171.640000 18.820000 171.100000 20.170000 L 154.810000 63.820000 L 168.400000 63.820000 L 178.930000 31.960000 L 179.110000 31.960000 L 189.280000 63.820000 L 202.510000 63.820000 L 183.070000 11.530000 Q 181.000000 5.860000 177.310000 3.430000 Q 173.620000 1.000000 167.050000 1.000000 Z M 206.830000 63.820000 L 225.370000 63.820000 L 235.000000 29.980000 L 235.360000 29.980000 L 244.990000 63.820000 L 263.530000 63.820000 L 263.530000 17.290000 L 251.470000 17.290000 L 251.470000 52.660000 L 251.200000 52.660000 L 241.210000 17.290000 L 229.150000 17.290000 L 219.160000 52.660000 L 218.890000 52.660000 L 218.890000 17.290000 L 206.830000 17.290000 Z M 273.160000 47.350000 L 273.160000 36.370000 L 300.250000 36.370000 L 300.250000 47.350000 Z M 312.220000 16.570000 Q 308.890000 16.570000 306.100000 17.650000 L 306.100000 29.170000 Q 306.460000 28.990000 307.135000 28.900000 Q 307.810000 28.810000 308.260000 28.810000 Q 311.680000 28.810000 313.885000 31.060000 Q 316.090000 33.310000 317.305000 38.080000 Q 318.520000 42.850000 318.970000 50.410000 Q 319.420000 57.970000 319.420000 68.590000 L 319.420000 81.550000 L 365.680000 81.550000 L 365.680000 17.290000 L 351.640000 17.290000 L 351.640000 69.670000 L 332.830000 69.670000 Q 332.560000 58.510000 332.065000 48.790000 Q 331.570000 39.070000 329.680000 31.915000 Q 327.790000 24.760000 323.740000 20.665000 Q 319.690000 16.570000 312.220000 16.570000 Z" transform="scale(1.000000,1.000000) translate(370.940000,94.710000)" fill="#000000" opacity="1.000000"></path>
        <path d="M 76.420000 66.340000 L 80.380000 66.340000 L 80.380000 2.080000 L 1.000000 2.080000 L 1.000000 66.340000 L 4.960000 66.340000 L 4.960000 5.500000 L 38.710000 5.500000 L 38.710000 66.340000 L 42.670000 66.340000 L 42.670000 5.500000 L 76.420000 5.500000 Z M 91.270000 48.340000 L 94.690000 48.340000 L 94.690000 23.050000 L 123.220000 48.340000 L 128.170000 48.340000 L 107.920000 30.340000 L 129.610000 2.080000 L 124.930000 2.080000 L 105.220000 27.730000 L 94.690000 18.820000 L 94.690000 2.080000 L 91.270000 2.080000 Z M 130.600000 25.210000 Q 130.600000 30.160000 131.995000 34.525000 Q 133.390000 38.890000 136.090000 42.220000 Q 138.790000 45.550000 142.750000 47.485000 Q 146.710000 49.420000 151.840000 49.420000 Q 156.970000 49.420000 160.930000 47.485000 Q 164.890000 45.550000 167.590000 42.220000 Q 170.290000 38.890000 171.685000 34.525000 Q 173.080000 30.160000 173.080000 25.210000 Q 173.080000 20.260000 171.685000 15.850000 Q 170.290000 11.440000 167.590000 8.155000 Q 164.890000 4.870000 160.930000 2.935000 Q 156.970000 1.000000 151.840000 1.000000 Q 146.710000 1.000000 142.750000 2.935000 Q 138.790000 4.870000 136.090000 8.155000 Q 133.390000 11.440000 131.995000 15.850000 Q 130.600000 20.260000 130.600000 25.210000 Z M 134.020000 25.210000 Q 134.020000 21.070000 135.190000 17.245000 Q 136.360000 13.420000 138.610000 10.450000 Q 140.860000 7.480000 144.190000 5.725000 Q 147.520000 3.970000 151.840000 3.970000 Q 156.160000 3.970000 159.490000 5.725000 Q 162.820000 7.480000 165.070000 10.450000 Q 167.320000 13.420000 168.490000 17.245000 Q 169.660000 21.070000 169.660000 25.210000 Q 169.660000 29.350000 168.490000 33.175000 Q 167.320000 37.000000 165.070000 39.970000 Q 162.820000 42.940000 159.490000 44.695000 Q 156.160000 46.450000 151.840000 46.450000 Q 147.520000 46.450000 144.190000 44.695000 Q 140.860000 42.940000 138.610000 39.970000 Q 136.360000 37.000000 135.190000 33.175000 Q 134.020000 29.350000 134.020000 25.210000 Z M 218.170000 48.340000 L 218.170000 2.080000 L 214.750000 2.080000 L 214.750000 45.370000 L 193.150000 45.370000 L 192.160000 19.270000 Q 191.980000 14.050000 191.125000 10.585000 Q 190.270000 7.120000 188.830000 5.005000 Q 187.390000 2.890000 185.455000 2.035000 Q 183.520000 1.180000 181.090000 1.180000 Q 178.480000 1.180000 176.230000 2.170000 L 176.230000 5.500000 Q 177.490000 4.870000 178.570000 4.645000 Q 179.650000 4.420000 180.910000 4.420000 Q 182.710000 4.420000 184.105000 5.185000 Q 185.500000 5.950000 186.490000 7.705000 Q 187.480000 9.460000 188.020000 12.340000 Q 188.560000 15.220000 188.740000 19.540000 L 189.820000 48.340000 Z M 258.940000 11.260000 L 258.760000 11.260000 Q 257.950000 9.190000 256.420000 7.345000 Q 254.890000 5.500000 252.685000 4.060000 Q 250.480000 2.620000 247.690000 1.810000 Q 244.900000 1.000000 241.570000 1.000000 Q 234.190000 1.000000 230.140000 4.195000 Q 226.090000 7.390000 226.090000 14.050000 Q 226.090000 18.100000 227.710000 20.665000 Q 229.330000 23.230000 231.805000 24.715000 Q 234.280000 26.200000 237.295000 26.830000 Q 240.310000 27.460000 243.100000 27.730000 L 248.410000 28.180000 Q 252.100000 28.450000 254.215000 29.035000 Q 256.330000 29.620000 257.410000 30.655000 Q 258.490000 31.690000 258.760000 33.310000 Q 259.030000 34.930000 259.030000 37.360000 Q 259.030000 39.250000 258.310000 40.870000 Q 257.590000 42.490000 256.060000 43.750000 Q 254.530000 45.010000 252.100000 45.730000 Q 249.670000 46.450000 246.160000 46.450000 Q 239.950000 46.450000 236.125000 43.390000 Q 232.300000 40.330000 231.940000 34.120000 L 228.520000 34.120000 Q 228.880000 41.770000 233.425000 45.595000 Q 237.970000 49.420000 246.340000 49.420000 Q 254.710000 49.420000 258.535000 46.135000 Q 262.360000 42.850000 262.360000 37.540000 L 262.360000 10.630000 Q 262.360000 9.640000 262.405000 8.650000 Q 262.450000 7.660000 262.720000 6.850000 Q 262.990000 6.040000 263.620000 5.545000 Q 264.250000 5.050000 265.420000 5.050000 Q 266.320000 5.050000 267.940000 5.320000 L 267.940000 2.440000 Q 266.590000 2.080000 265.150000 2.080000 Q 263.080000 2.080000 261.865000 2.620000 Q 260.650000 3.160000 260.020000 4.060000 Q 259.390000 4.960000 259.165000 6.175000 Q 258.940000 7.390000 258.940000 8.830000 Z M 258.940000 28.360000 Q 257.680000 26.830000 255.115000 26.290000 Q 252.550000 25.750000 249.400000 25.480000 L 243.640000 24.940000 Q 241.120000 24.670000 238.600000 24.175000 Q 236.080000 23.680000 234.055000 22.510000 Q 232.030000 21.340000 230.770000 19.315000 Q 229.510000 17.290000 229.510000 14.050000 Q 229.510000 8.920000 232.750000 6.445000 Q 235.990000 3.970000 241.660000 3.970000 Q 247.510000 3.970000 250.930000 6.085000 Q 254.350000 8.200000 256.150000 10.945000 Q 257.950000 13.690000 258.445000 16.255000 Q 258.940000 18.820000 258.940000 19.720000 Z" transform="scale(1.000000,1.000000) translate(68.215434,109.916288)" fill="#000000" opacity="1.000000"></path>
    </g>
</svg>